<?xml version="1.0" encoding="UTF-8" standalone="no"?><!DOCTYPE svg PUBLIC "-//W3C//DTD SVG 1.1//EN" "http://www.w3.org/Graphics/SVG/1.1/DTD/svg11.dtd"><svg width="100%" height="100%" viewBox="0 0 402 302" version="1.1" xmlns="http://www.w3.org/2000/svg" xmlns:xlink="http://www.w3.org/1999/xlink" xml:space="preserve" xmlns:serif="http://www.serif.com/" style="fill-rule:evenodd;clip-rule:evenodd;stroke-linejoin:round;stroke-miterlimit:2;"><g><path d="M143.3,158.4l13.2,-83.2l-14.1,0c-6.6,0 -15.1,-3.7 -17.6,-10.5c-0.8,-2.3 -2.7,-10.2 8.2,-17.9c3.9,-2.7 6.4,-5.7 6.9,-8c0.5,-2.4 -0.1,-4.5 -1.8,-6.1c-2.4,-2.3 -7.1,-3.6 -13.1,-3.6c-10.1,0 -17.2,5.8 -17.9,10c-0.5,3.1 1.9,5.6 4,7.2c6.3,4.7 7.8,11.5 3.9,17.9c-4,6.6 -12.7,10.9 -22,11l-14.4,0c-1.2,8.1 -20.8,132.3 -22.3,142.1l77.8,0c0.7,-4.3 4.3,-27.8 9.2,-58.9Z" style="fill:#183e4f;fill-rule:nonzero;"/><g><path d="M52.1,246.1l31.9,0c13.6,0 16.9,6.9 15.9,13.2c-0.8,5.1 -4.3,8.9 -10.3,11.4c7.6,2.9 10.6,7.4 9.5,14.5c-1.4,8.9 -9.1,15.5 -19.2,15.5l-36.3,0l8.5,-54.6Zm21.1,22.6c6.2,0 9.1,-3.3 9.7,-7.2c0.6,-4.2 -1.3,-7.1 -7.5,-7.1l-5.5,0l-2.2,14.3l5.5,0Zm-3.4,23.5c6.4,0 10.1,-2.6 11,-7.9c0.7,-4.6 -1.9,-7.3 -8.1,-7.3l-6.2,0l-2.4,15.3l5.7,0l0,-0.1Z" style="fill:#183e4f;fill-rule:nonzero;"/><path d="M143.8,301.1c-8.3,0.6 -12.3,-0.3 -14.3,-3.9c-4.4,2.7 -9.3,4.1 -14.5,4.1c-9.4,0 -12.7,-4.9 -11.8,-10.3c0.4,-2.6 1.9,-5.1 4.3,-7.2c5.2,-4.5 18,-5.1 23,-8.5c0.4,-3.8 -1.1,-5.2 -5.8,-5.2c-4.7,0 -10.1,1.8 -18,7.2l1.9,-12.4c6.8,-4.9 13.4,-7.2 21,-7.2c7.6,0 18.3,4 16.7,14.6l-1.9,12c-0.7,4.2 -0.5,5.5 4.2,5.6l-4.8,11.2Zm-14.4,-18.9c-4.4,2.8 -12.6,2.3 -13.5,8.1c-0.4,2.7 1.3,4.7 4,4.7c2.7,0 5.8,-1.1 8.4,-2.9c-0.2,-1 -0.1,-2 0.2,-3.9l0.9,-6Z" style="fill:#183e4f;fill-rule:nonzero;"/><path d="M159.3,258.4l16.6,0l-0.9,5.5c5.3,-4.5 9.3,-6.2 14.5,-6.2c9.3,0 13.6,5.7 12.1,15l-4.3,27.9l-16.6,0l3.6,-23.1c0.7,-4.2 -0.6,-6.2 -3.8,-6.2c-3.2,0 -5,1.4 -7.3,4.5l-3.8,24.7l-16.6,0l6.5,-42.1Z" style="fill:#183e4f;fill-rule:nonzero;"/><path d="M214.6,246.1l16.6,0l-4.2,26.8l15.9,-14.5l20.5,0l-20.4,18l16.4,24.2l-20.9,0l-12.6,-19.6l-0.2,0l-3,19.5l-16.6,0l8.5,-54.4Z" style="fill:#183e4f;fill-rule:nonzero;"/></g><path d="M273.3,246.1l19.1,0l-8.4,54.5l-19.1,0l8.4,-54.5Z" style="fill:#183e4f;fill-rule:nonzero;"/><path d="M301.7,246.1l27.3,0c21.1,0 27.2,15.3 25.2,28c-1.9,12.4 -11.7,26.5 -30.2,26.5l-30.8,0l8.5,-54.5Zm17.7,41.5c9.3,0 14.4,-4.6 15.9,-14.3c1.1,-7.2 -1.1,-14.3 -11.4,-14.3l-5.1,0l-4.4,28.6l5,0Z" style="fill:#183e4f;fill-rule:nonzero;"/><path d="M247.9,2.5l-79.5,0l-10.6,67.3l13.5,0c7.4,0 14.4,-3.4 17.4,-8.3c1,-1.6 1.4,-3 1.4,-4.3c0,-2.8 -1.9,-4.9 -3.8,-6.3c-5.2,-3.9 -6.3,-8 -6.3,-10.9c0,-2.9 0,-1.1 0.1,-1.6c1.1,-7.1 10.7,-14.8 23.4,-14.8c12.7,0 13.4,1.8 16.9,5.1c3.1,2.9 4.3,7 3.4,11.3c-1.1,5.1 -6.2,9.3 -9.1,11.4c-7.7,5.4 -6.7,10.1 -6.2,11.5c1.6,4.2 7.7,6.9 12.4,6.9l20.6,0c28,0.3 43,13.2 38.3,43.2c-4.4,27.9 -25.8,39.9 -51.3,40.1l-10.1,64.4l14.9,0c62.9,0 114.3,-40.4 124.4,-104.2c12.5,-79.2 -37.8,-110.8 -109.8,-110.8Z" style="fill:#183e4f;fill-rule:nonzero;"/></g></svg>