<?xml version="1.0" encoding="UTF-8" standalone="no"?><!DOCTYPE svg PUBLIC "-//W3C//DTD SVG 1.1//EN" "http://www.w3.org/Graphics/SVG/1.1/DTD/svg11.dtd"><svg width="100%" height="100%" viewBox="0 0 81 32" version="1.1" xmlns="http://www.w3.org/2000/svg" xmlns:xlink="http://www.w3.org/1999/xlink" xml:space="preserve" xmlns:serif="http://www.serif.com/" style="fill-rule:evenodd;clip-rule:evenodd;stroke-linejoin:round;stroke-miterlimit:2;"><path d="M37.825,15.505l0,9.3l-3,0l0,-23l7.8,0c1.9,0 3.7,0.7 5.1,2c1.4,1.2 2.1,3 2.1,4.9c0,1.9 -0.7,3.6 -2.1,4.9c-1.4,1.3 -3.1,2 -5.1,2l-4.8,-0.1Zm0,-10.9l0,8l5,0c1.1,0 2.2,-0.4 2.9,-1.2c1.6,-1.5 1.6,-4 0.1,-5.5l-0.1,-0.1c-0.8,-0.8 -1.8,-1.3 -2.9,-1.2l-5,-0Z" style="fill:#5f6368;fill-rule:nonzero;"/><path d="M56.725,8.605c2.2,0 3.9,0.6 5.2,1.8c1.3,1.2 1.9,2.8 1.9,4.8l0,9.6l-2.8,0l0,-2.2l-0.1,0c-1.2,1.8 -2.9,2.7 -4.9,2.7c-1.7,0 -3.2,-0.5 -4.4,-1.5c-1.1,-1 -1.8,-2.4 -1.8,-3.9c0,-1.6 0.6,-2.9 1.8,-3.9c1.2,-1 2.9,-1.4 4.9,-1.4c1.8,0 3.2,0.3 4.3,1l0,-0.7c0,-1 -0.4,-2 -1.2,-2.6c-0.8,-0.7 -1.8,-1.1 -2.9,-1.1c-1.7,0 -3,0.7 -3.9,2.1l-2.6,-1.6c1.6,-2.1 3.7,-3.1 6.5,-3.1Zm-3.8,11.4c0,0.8 0.4,1.5 1,1.9c0.7,0.5 1.5,0.8 2.3,0.8c1.2,0 2.4,-0.5 3.3,-1.4c1,-0.9 1.5,-2 1.5,-3.2c-0.9,-0.7 -2.2,-1.1 -3.9,-1.1c-1.2,0 -2.2,0.3 -3,0.9c-0.8,0.5 -1.2,1.2 -1.2,2.1Z" style="fill:#5f6368;fill-rule:nonzero;"/><path d="M80.025,9.105l-9.9,22.7l-3,0l3.7,-7.9l-6.5,-14.7l3.2,0l4.7,11.3l0.1,0l4.6,-11.3l3.1,0l0,-0.1Z" style="fill:#5f6368;fill-rule:nonzero;"/><path d="M25.925,13.505c0,-0.9 -0.1,-1.8 -0.2,-2.7l-12.5,0l0,5.1l7.1,0c-0.3,1.6 -1.2,3.1 -2.6,4l0,3.3l4.3,0c2.5,-2.3 3.9,-5.7 3.9,-9.7Z" style="fill:#4285f4;fill-rule:nonzero;"/><path d="M13.225,26.405c3.6,0 6.6,-1.2 8.8,-3.2l-4.3,-3.3c-1.2,0.8 -2.7,1.3 -4.5,1.3c-3.4,0 -6.4,-2.3 -7.4,-5.5l-4.4,0l0,3.4c2.3,4.5 6.8,7.3 11.8,7.3Z" style="fill:#34a853;fill-rule:nonzero;"/><path d="M5.825,15.705c-0.6,-1.6 -0.6,-3.4 0,-5.1l0,-3.4l-4.4,0c-1.9,3.7 -1.9,8.1 0,11.9l4.4,-3.4Z" style="fill:#fbbc04;fill-rule:nonzero;"/><path d="M13.225,5.205c1.9,0 3.7,0.7 5.1,2l3.8,-3.8c-2.4,-2.2 -5.6,-3.5 -8.8,-3.4c-5,0 -9.6,2.8 -11.8,7.3l4.4,3.4c0.9,-3.2 3.9,-5.5 7.3,-5.5Z" style="fill:#ea4335;fill-rule:nonzero;"/></svg>