<?xml version="1.0" encoding="UTF-8" standalone="no"?><!DOCTYPE svg PUBLIC "-//W3C//DTD SVG 1.1//EN" "http://www.w3.org/Graphics/SVG/1.1/DTD/svg11.dtd"><svg width="100%" height="100%" viewBox="0 0 117 73" version="1.1" xmlns="http://www.w3.org/2000/svg" xmlns:xlink="http://www.w3.org/1999/xlink" xml:space="preserve" xmlns:serif="http://www.serif.com/" style="fill-rule:evenodd;clip-rule:evenodd;stroke-linejoin:round;stroke-miterlimit:2;"><g><rect x="42.528" y="7.708" width="31.5" height="56.6" style="fill:#ff5f00;"/><path d="M44.528,36.008c0,-11 5.1,-21.5 13.7,-28.3c-15.6,-12.3 -38.3,-9.6 -50.6,6.1c-12.2,15.6 -9.5,38.2 6.2,50.5c13.1,10.3 31.4,10.3 44.5,0c-8.7,-6.8 -13.8,-17.3 -13.8,-28.3Z" style="fill:#eb001b;fill-rule:nonzero;"/><path d="M116.528,36.008c0,19.9 -16.1,36 -36,36c-8.1,0 -15.9,-2.7 -22.2,-7.7c15.6,-12.3 18.3,-34.9 6,-50.6c-1.8,-2.2 -3.8,-4.3 -6,-6c15.6,-12.3 38.3,-9.6 50.5,6.1c5,6.3 7.7,14.1 7.7,22.2Z" style="fill:#f79e1b;fill-rule:nonzero;"/></g></svg>