<?xml version="1.0" encoding="UTF-8" standalone="no"?><!DOCTYPE svg PUBLIC "-//W3C//DTD SVG 1.1//EN" "http://www.w3.org/Graphics/SVG/1.1/DTD/svg11.dtd"><svg width="100%" height="100%" viewBox="0 0 755 566" version="1.1" xmlns="http://www.w3.org/2000/svg" xmlns:xlink="http://www.w3.org/1999/xlink" xml:space="preserve" xmlns:serif="http://www.serif.com/" style="fill-rule:evenodd;clip-rule:evenodd;stroke-linejoin:round;stroke-miterlimit:2;"><g><g id="Layer_1"><g id="_x30_1-Primary-_x28_Vertical_x29__x2F_Colour_x2F_Light-background_x2F_Swish_x5F_Logo_x5F_Primary_x5F_Light-BG"><g id="Wordmark_x2F_Swish"><path id="swish_xAE_" d="M555.4,485.9c0,-2 0.4,-3.9 1.1,-5.7c0.7,-1.8 1.8,-3.3 3,-4.6c1.3,-1.3 2.8,-2.4 4.5,-3.1c1.7,-0.8 3.6,-1.1 5.5,-1.1c1.9,0 3.9,0.4 5.6,1.1c1.7,0.8 3.3,1.8 4.6,3.1c1.3,1.3 2.3,2.9 3.1,4.6c0.7,1.8 1.1,3.7 1.1,5.7c0,2 -0.4,3.9 -1.1,5.7c-0.7,1.8 -1.8,3.3 -3.1,4.6c-1.3,1.3 -2.8,2.4 -4.6,3.1c-1.7,0.8 -3.6,1.1 -5.6,1.1c-2,0 -3.8,-0.4 -5.5,-1.1c-1.7,-0.8 -3.2,-1.8 -4.5,-3.1c-1.3,-1.3 -2.3,-2.9 -3,-4.6c-0.7,-1.8 -1.1,-3.7 -1.1,-5.7Zm2.9,0c0,1.7 0.3,3.2 0.9,4.7c0.6,1.4 1.4,2.7 2.4,3.8c1,1.1 2.2,1.9 3.6,2.5c1.4,0.6 2.9,0.9 4.5,0.9c1.6,0 3.1,-0.3 4.5,-0.9c1.4,-0.6 2.6,-1.5 3.6,-2.5c1,-1 1.8,-2.3 2.4,-3.8c0.6,-1.4 0.9,-3 0.9,-4.7c0,-1.7 -0.3,-3.2 -0.9,-4.7c-0.6,-1.4 -1.4,-2.7 -2.4,-3.8c-1,-1.1 -2.2,-1.9 -3.6,-2.5c-1.4,-0.6 -2.9,-0.9 -4.5,-0.9c-1.6,0 -3.1,0.3 -4.5,0.9c-1.4,0.6 -2.6,1.5 -3.6,2.5c-1,1.1 -1.8,2.3 -2.4,3.8c-0.6,1.4 -0.9,3 -0.9,4.7Zm6.4,-6.3c0,-0.9 0.4,-1.3 1.3,-1.3l4.5,0c1.4,0 2.6,0.4 3.4,1.2c0.9,0.8 1.3,1.9 1.3,3.4c0,1.5 0,1.1 -0.3,1.6c-0.2,0.5 -0.4,0.8 -0.7,1.2c-0.3,0.3 -0.6,0.6 -0.9,0.8c-0.3,0.2 -0.6,0.4 -1,0.4c0,0.1 0,0.2 0.1,0.2c0,0 0.1,0.1 0.2,0.3c0,0.1 0.1,0.3 0.2,0.4l2.1,4c0.2,0.5 0.3,0.8 0.2,1.1c-0.1,0.3 -0.4,0.4 -0.9,0.4l-0.5,0c-0.7,0 -1.3,-0.3 -1.6,-1l-2.3,-4.9l-2.5,0l0,4.6c0,0.9 -0.4,1.3 -1.2,1.3l-0.4,0c-0.8,0 -1.2,-0.4 -1.2,-1.3l0,-12.5l0.2,0.1Zm5.3,5.8c0.8,0 1.4,-0.2 1.8,-0.7c0.4,-0.5 0.6,-1.1 0.6,-1.9c0,-0.8 -0.2,-1.4 -0.6,-1.8c-0.4,-0.4 -1,-0.6 -1.8,-0.6l-2.4,0l0,5l2.4,0Zm-116.7,9.6c4.5,0 8.4,0.6 11.5,1.7c3.2,1.2 5.6,2.2 7.4,3.2c1.5,0.8 2.4,1.9 2.7,3.2c0.3,1.3 0,2.7 -0.7,4.3l-1.3,2.4c-0.8,1.6 -1.8,2.5 -3.1,2.8c-1.3,0.3 -2.7,0 -4.4,-0.7c-1.5,-0.7 -3.3,-1.4 -5.5,-2.2c-2.2,-0.8 -4.6,-1.1 -7.5,-1.1c-2.9,0 -5.2,0.6 -6.8,1.7c-1.6,1.2 -2.4,2.8 -2.4,4.9c0,2.1 0.8,3.4 2.5,4.5c1.6,1.2 3.7,2.2 6.3,3.1c2.5,0.9 5.2,1.8 8.1,2.9c2.9,1 5.6,2.3 8.1,3.9c2.5,1.6 4.6,3.6 6.3,6.1c1.6,2.5 2.5,5.6 2.5,9.4c0,3.8 -0.6,5.8 -1.8,8.3c-1.2,2.5 -2.9,4.7 -5.2,6.6c-2.3,1.9 -5,3.3 -8.2,4.4c-3.2,1.1 -6.7,1.6 -10.7,1.6c-4,0 -10.1,-0.8 -13.9,-2.4c-3.8,-1.6 -6.7,-3.1 -8.7,-4.5c-1.5,-0.9 -2.4,-2 -2.5,-3.3c-0.2,-1.3 0.2,-2.7 1.2,-4.3l1.6,-2.4c1,-1.4 2.1,-2.2 3.3,-2.4c1.2,-0.2 2.6,0.2 4.3,1.1c1.6,0.9 3.7,1.9 6.2,3c2.5,1.1 5.5,1.7 9,1.7c3.5,0 5.2,-0.6 6.9,-1.9c1.7,-1.3 2.5,-2.9 2.5,-5.1c0,-2.2 -0.8,-3.3 -2.5,-4.5c-1.6,-1.1 -3.7,-2.1 -6.3,-3.1c-2.5,-0.9 -5.2,-1.9 -8.1,-3c-2.9,-1.1 -5.6,-2.4 -8.1,-4c-2.5,-1.6 -4.6,-3.6 -6.3,-6.1c-1.6,-2.5 -2.5,-5.7 -2.5,-9.6c0,-3.9 0.7,-6.2 2.1,-8.8c1.4,-2.6 3.2,-4.7 5.6,-6.4c2.4,-1.7 5.1,-3 8.3,-3.9c3.2,-0.9 6.5,-1.3 10.1,-1.3l0,0.2Zm-198,0c4.5,0 8.4,0.6 11.5,1.7c3.1,1.1 5.6,2.2 7.4,3.2c1.5,0.8 2.4,1.9 2.7,3.2c0.3,1.3 0,2.7 -0.7,4.3l-1.3,2.4c-0.8,1.6 -1.8,2.5 -3.1,2.8c-1.3,0.3 -2.7,0 -4.4,-0.7c-1.5,-0.7 -3.3,-1.4 -5.5,-2.2c-2.1,-0.8 -4.6,-1.1 -7.5,-1.1c-2.9,0 -5.2,0.6 -6.8,1.7c-1.6,1.2 -2.4,2.8 -2.4,4.9c0,2.1 0.8,3.4 2.5,4.5c1.6,1.2 3.7,2.2 6.3,3.1c2.5,0.9 5.2,1.8 8.1,2.9c2.9,1 5.6,2.3 8.1,3.9c2.5,1.6 4.6,3.6 6.3,6.1c1.6,2.5 2.5,5.6 2.5,9.4c0,3.8 -0.6,5.8 -1.8,8.3c-1.2,2.5 -2.9,4.7 -5.2,6.6c-2.3,1.9 -5,3.3 -8.2,4.4c-3.2,1.1 -6.7,1.6 -10.7,1.6c-4,0 -10.1,-0.8 -13.9,-2.4c-3.8,-1.6 -6.7,-3.1 -8.7,-4.5c-1.5,-0.9 -2.4,-2 -2.5,-3.3c-0.2,-1.3 0.2,-2.7 1.2,-4.3l1.6,-2.4c1,-1.4 2.1,-2.2 3.3,-2.4c1.2,-0.2 2.6,0.2 4.3,1.1c1.6,0.9 3.7,1.9 6.2,3c2.5,1.1 5.5,1.7 9,1.7c3.5,0 5.2,-0.6 6.9,-1.9c1.7,-1.2 2.5,-2.9 2.5,-5.1c0,-2.2 -0.8,-3.3 -2.5,-4.5c-1.6,-1.1 -3.7,-2.1 -6.3,-3.1c-2.5,-0.9 -5.2,-1.9 -8.1,-3c-2.9,-1.1 -5.6,-2.4 -8.1,-4c-2.5,-1.6 -4.6,-3.6 -6.3,-6.1c-1.7,-2.5 -2.5,-5.7 -2.5,-9.6c0,-3.9 0.7,-6.2 2.1,-8.8c1.4,-2.6 3.2,-4.7 5.6,-6.4c2.4,-1.7 5.1,-3 8.3,-3.9c3.2,-0.9 6.5,-1.3 10.1,-1.3l0,0.2Zm242.8,-25c3.7,0 5.6,1.9 5.6,5.6l0,29.7c0,0.7 -0.1,1.3 -0.2,1.8c0,0.6 -0.1,1.2 -0.1,1.6l0.3,0c0.8,-1.6 1.9,-3.2 3.4,-4.9c1.5,-1.6 3.2,-3.1 5.2,-4.5c2,-1.3 4.3,-2.4 6.8,-3.2c2.5,-0.8 5.3,-1.2 8.2,-1.2c7.5,0 13.4,2 17.5,6.1c4.1,4.1 6.2,10.6 6.2,19.7l0,38c0,3.7 -1.9,5.6 -5.6,5.6l-5.7,0c-3.7,0 -5.6,-1.9 -5.6,-5.6l0,-34.6c0,-4.2 -0.7,-7.5 -2.1,-10c-1.4,-2.5 -4.3,-3.8 -8.5,-3.8c-4.2,0 -5.6,0.6 -8.1,1.7c-2.4,1.2 -4.5,2.7 -6.2,4.7c-1.7,2 -3,4.4 -3.9,7.1c-0.9,2.7 -1.4,5.7 -1.4,8.9l0,25.9c0,3.7 -1.9,5.6 -5.6,5.6l-5.7,0c-3.7,0 -5.6,-1.9 -5.6,-5.6l0,-83.2c0,-3.7 1.9,-5.6 5.6,-5.6l5.7,0l-0.2,0.2Zm-88.4,26.6c3.6,0 5.5,1.9 5.5,5.6l0,56.6c0,3.7 -1.8,5.6 -5.5,5.6l-5.9,0c-3.6,0 -5.5,-1.9 -5.5,-5.6l0,-56.6c0,-3.7 1.8,-5.6 5.5,-5.6l5.9,0Zm-113,0c3.4,0 5.4,1.6 6,4.9l10.9,39.6c0.2,1 0.3,1.9 0.5,2.7c0.1,0.8 0.3,1.6 0.5,2.3c0.2,0.8 0.3,1.6 0.4,2.3l0.3,0c0,-0.7 0.2,-1.5 0.4,-2.3c0.2,-0.7 0.3,-1.5 0.5,-2.3c0.1,-0.8 0.3,-1.7 0.6,-2.7l11.5,-39.6c0.6,-3.2 2.7,-4.8 6.1,-4.8l5.1,0c3.3,0 5.3,1.6 6.1,4.8l11.3,39.6c0.3,1 0.5,1.9 0.6,2.7c0.1,0.8 0.3,1.6 0.5,2.3c0.2,0.8 0.3,1.6 0.4,2.3l0.3,0c0,-0.7 0.2,-1.5 0.4,-2.3c0.2,-0.7 0.3,-1.5 0.5,-2.3c0.1,-0.8 0.3,-1.7 0.6,-2.7l10.8,-39.6c0.8,-3.3 2.8,-4.9 6.1,-4.9l6.1,0c2,0 3.5,0.6 4.3,1.7c0.8,1.2 0.9,2.7 0.4,4.5l-17.4,56.9c-0.9,3.1 -3,4.7 -6.3,4.7l-8.9,0c-3.4,0 -5.5,-1.6 -6.3,-4.8l-10.3,-33.9c-0.3,-0.9 -0.5,-1.8 -0.7,-2.7c-0.2,-0.9 -0.4,-1.7 -0.5,-2.4c-0.2,-0.8 -0.3,-1.6 -0.4,-2.3l-0.3,0c-0.2,0.7 -0.4,1.5 -0.5,2.3c-0.2,0.7 -0.4,1.5 -0.5,2.4c-0.2,0.9 -0.4,1.8 -0.7,2.7l-10.3,33.9c-0.8,3.2 -2.8,4.8 -6.1,4.8l-9.2,0c-3.2,0 -5.2,-1.6 -6.1,-4.7l-17.6,-56.9c-0.5,-1.9 -0.4,-3.4 0.5,-4.5c0.8,-1.2 2.2,-1.7 4.2,-1.7l6.4,0l-0.2,-0Z" style="fill:#17191f;fill-rule:nonzero;"/></g><g id="Symbol_x2F_Colour"><g id="Right-Swirl"><path id="Base-Shape" d="M293.3,399.2c84.3,40.3 188.3,20.4 251.2,-54.5c74.5,-88.8 62.9,-221.1 -25.8,-295.5l-59,70.3c69.3,58.2 78.4,161.5 20.2,230.9c-46.4,55.3 -122.8,73.7 -186.5,48.9" style="fill:url(#_Linear1);"/><path id="Light-Cast" d="M293.3,399.2c84.3,40.3 188.3,20.4 251.2,-54.5c7.7,-9.2 14.5,-18.8 20.3,-28.8c9.9,-61.7 -11.9,-126.9 -63.2,-169.9c-13,-10.9 -27.2,-19.8 -41.9,-26.5c69.3,58.2 78.4,161.5 20.2,230.9c-46.4,55.3 -122.8,73.7 -186.5,48.9" style="fill:url(#_Linear2);"/></g><g id="Left-Swirl"><path id="Base-shape" d="M474.3,20.4c-84.3,-40.3 -188.4,-20.4 -251.2,54.5c-74.5,88.8 -62.9,221.1 25.8,295.5l59,-70.3c-69.3,-58.2 -78.4,-161.5 -20.2,-230.9c46.5,-55.2 122.9,-73.7 186.6,-48.8" style="fill:url(#_Linear3);"/><path id="Shadow" d="M474.3,20.4c-84.3,-40.3 -188.4,-20.4 -251.2,54.5c-7.7,9.2 -14.5,18.8 -20.3,28.8c-9.9,61.7 11.9,126.9 63.2,169.9c13,10.9 27.2,19.8 41.9,26.5c-69.3,-58.2 -78.4,-161.5 -20.2,-230.9c46.5,-55.2 122.9,-73.7 186.6,-48.8" style="fill:url(#_Linear4);"/></g></g></g></g></g><defs><linearGradient id="_Linear1" x1="0" y1="0" x2="1" y2="0" gradientUnits="userSpaceOnUse" gradientTransform="matrix(-60.06,-185.25,185.25,-60.06,411.8,289.7)"><stop offset="0" style="stop-color:#ef2131;stop-opacity:1"/><stop offset="1" style="stop-color:#fecf2c;stop-opacity:1"/></linearGradient><linearGradient id="_Linear2" x1="0" y1="0" x2="1" y2="0" gradientUnits="userSpaceOnUse" gradientTransform="matrix(-136.9,270.18,-270.18,-136.9,553.88,129.6)"><stop offset="0" style="stop-color:#fbc52c;stop-opacity:1"/><stop offset="0.3" style="stop-color:#f87130;stop-opacity:1"/><stop offset="0.6" style="stop-color:#ef52e2;stop-opacity:1"/><stop offset="1" style="stop-color:#661eec;stop-opacity:1"/></linearGradient><linearGradient id="_Linear3" x1="0" y1="0" x2="1" y2="0" gradientUnits="userSpaceOnUse" gradientTransform="matrix(60.06,185.25,-185.25,60.06,292.2,92.5)"><stop offset="0" style="stop-color:#78f6d8;stop-opacity:1"/><stop offset="0.3" style="stop-color:#77d1f6;stop-opacity:1"/><stop offset="0.6" style="stop-color:#70a4f3;stop-opacity:1"/><stop offset="1" style="stop-color:#661eec;stop-opacity:1"/></linearGradient><linearGradient id="_Linear4" x1="0" y1="0" x2="1" y2="0" gradientUnits="userSpaceOnUse" gradientTransform="matrix(136.9,-270.18,270.18,136.9,269.12,220.04)"><stop offset="0" style="stop-color:#536eed;stop-opacity:1"/><stop offset="0.2" style="stop-color:#54c3ec;stop-opacity:1"/><stop offset="0.6" style="stop-color:#64d769;stop-opacity:1"/><stop offset="1" style="stop-color:#fecf2c;stop-opacity:1"/></linearGradient></defs></svg>